{"title":"El libro de piedra AKA The Book of Stone (1969) ","uid":7694918,"size":1447336431,"categoryP":"video","categoryS":"movies","magnet":"?xt=urn:btih:80075b38c4b9357047248ebeac5c136357e2fb41&amp;dn=El+libro+de+piedra+AKA+The+Book+of+Stone+%281969%29+&amp;tr=udp%3A%2F%2Ftracker.openbittorrent.com%3A80&amp;tr=udp%3A%2F%2Fopen.demonii.com%3A1337&amp;tr=udp%3A%2F%2Ftracker.coppersurfer.tk%3A6969&amp;tr=udp%3A%2F%2Fexodus.desync.com%3A6969","seeders":1,"leechers":1,"uploader":"brunicolos","files":2,"time":1349328675,"description":"Julia is hired to be the governess of a young girl, Sylvia who has an emotionally distant father, Eugenio, and a new stepmother, Mariana. Sylvia insists that she plays with a little boy named Hugo - whom the adults all see is a stone statue in the courtyard. When strange things begin to happen (such as Mariana, whom Sylvia dislikes, experiencing strange pains) the adults begin to wonder if Hugo may be more than just an imaginary playmate.\n &lt;a href=&quot;\nhttp://www.imdb.com/title/tt0242601/&quot; rel=&quot;nofollow&quot; target=&quot;_NEW&quot;&gt;\nhttp://www.imdb.com/title/tt0242601/&lt;/a&gt;\n\n------------------------------------------------------------------------------\n\nSubtitles (.srt): English\n\n-------------------------------------------------------------------------------\n\nScreenshots:\n &lt;a href=&quot;\nhttp://imageshack.us/a/img809/9799/vlcsnap2012100323h59m52.jpg&quot; rel=&quot;nofollow&quot; target=&quot;_NEW&quot;&gt;\nhttp://imageshack.us/a/img809/9799/vlcsnap2012100323h59m52.jpg&lt;/a&gt; &lt;a href=&quot;\nhttp://imageshack.us/a/img51/8391/vlcsnap2012100321h13m09.jpg&quot; rel=&quot;nofollow&quot; target=&quot;_NEW&quot;&gt;\nhttp://imageshack.us/a/img51/8391/vlcsnap2012100321h13m09.jpg&lt;/a&gt; &lt;a href=&quot;\nhttp://imageshack.us/a/img834/6885/vlcsnap2012100322h28m48.jpg&quot; rel=&quot;nofollow&quot; target=&quot;_NEW&quot;&gt;\nhttp://imageshack.us/a/img834/6885/vlcsnap2012100322h28m48.jpg&lt;/a&gt; &lt;a href=&quot;\nhttp://imageshack.us/a/img209/9366/vlcsnap2012100322h45m04.jpg&quot; rel=&quot;nofollow&quot; target=&quot;_NEW&quot;&gt;\nhttp://imageshack.us/a/img209/9366/vlcsnap2012100322h45m04.jpg&lt;/a&gt; &lt;a href=&quot;\nhttp://imageshack.us/a/img820/7746/vlcsnap2012100400h00m53.jpg&quot; rel=&quot;nofollow&quot; target=&quot;_NEW&quot;&gt;\nhttp://imageshack.us/a/img820/7746/vlcsnap2012100400h00m53.jpg&lt;/a&gt;\n\n--------------------------------------------------------------------------------\n\nFormat                                   : AVI\nFormat/Info                              : Audio Video Interleave\nFile size                                : 1.35 GiB\nDuration                                 : 1h 39mn\nOverall bit rate                         : 1 937 Kbps\nWriting application                      : VirtualDubMod 1.5.10.2 (build 2540/release)\nWriting library                          : VirtualDubMod build 2540/release\n\nVideo\nID                                       : 0\nFormat                                   : MPEG-4 Visual\nFormat profile                           : Simple@L3\nFormat settings, BVOP                    : No\nFormat settings, QPel                    : No\nFormat settings, GMC                     : No warppoints\nFormat settings, Matrix                  : Default (H.263)\nCodec ID                                 : XVID\nCodec ID/Hint                            : XviD\nDuration                                 : 1h 39mn\nBit rate                                 : 1 800 Kbps\nWidth                                    : 640 pixels\nHeight                                   : 480 pixels\nDisplay aspect ratio                     : 4:3\nFrame rate                               : 23.976 fps\nColor space                              : YUV\nChroma subsampling                       : 4:2:0\nBit depth                                : 8 bits\nScan type                                : Progressive\nCompression mode                         : Lossy\nBits/(Pixel*Frame)                       : 0.244\nStream size                              : 1.25 GiB (93%)\nWriting library                          : XviD 1.2.1 (UTC 2008-12-04)\n\nAudio\nID                                       : 1\nFormat                                   : MPEG Audio\nFormat version                           : Version 1\nFormat profile                           : Layer 3\nMode                                     : Joint stereo\nMode extension                           : MS Stereo\nCodec ID                                 : 55\nCodec ID/Hint                            : MP3\nDuration                                 : 1h 39mn\nBit rate mode                            : Constant\nBit rate                                 : 128 Kbps\nChannel(s)                               : 2 channels\nSampling rate                            : 48.0 KHz\nCompression mode                         : Lossy\nStream size                              : 91.2 MiB (7%)\nAlignment                                : Aligned on interleaves\nInterleave, duration                     : 42 ms (1.00 video frame)\nInterleave, preload duration             : 504 ms\n\n","torrent":{"xt":"urn:btih:80075b38c4b9357047248ebeac5c136357e2fb41","amp;dn":"El+libro+de+piedra+AKA+The+Book+of+Stone+%281969%29+","amp;tr":["udp%3A%2F%2Ftracker.openbittorrent.com%3A80","udp%3A%2F%2Fopen.demonii.com%3A1337","udp%3A%2F%2Ftracker.coppersurfer.tk%3A6969","udp%3A%2F%2Fexodus.desync.com%3A6969"],"infoHash":"80075b38c4b9357047248ebeac5c136357e2fb41","infoHashBuffer":{"type":"Buffer","data":[128,7,91,56,196,185,53,112,71,36,142,190,172,92,19,99,87,226,251,65]},"announce":[],"urlList":[]}}